<?xml version="1.0" encoding="UTF-8" standalone="no"?>
<svg width="18" height="18" viewBox="0 0 18 18" fill="none" xmlns="http://www.w3.org/2000/svg">
	<path stroke="#ffffff" stroke-width="0.5" d="M7.56006 1.08008C4.18366 1.08008 1.44006 3.82367 1.44006 7.20008C1.44006 10.5765 4.18366 13.3201 7.56006 13.3201C8.896 13.3201 10.1307 12.8898 11.1376 12.1613L15.8738 16.8863L16.8863 15.8738L12.2063 11.1826C13.126 10.111 13.6801 8.72023 13.6801 7.20008C13.6801 3.82367 10.9365 1.08008 7.56006 1.08008ZM7.56006 1.80008C10.5469 1.80008 12.9601 4.2132 12.9601 7.20008C12.9601 10.187 10.5469 12.6001 7.56006 12.6001C4.57319 12.6001 2.16006 10.187 2.16006 7.20008C2.16006 4.2132 4.57319 1.80008 7.56006 1.80008Z" fill="white"/>
	<mask id="mask0" mask-type="alpha" maskUnits="userSpaceOnUse" x="1" y="1" width="16" height="16">
		<path d="M7.56006 1.08008C4.18366 1.08008 1.44006 3.82367 1.44006 7.20008C1.44006 10.5765 4.18366 13.3201 7.56006 13.3201C8.896 13.3201 10.1307 12.8898 11.1376 12.1613L15.8738 16.8863L16.8863 15.8738L12.2063 11.1826C13.126 10.111 13.6801 8.72023 13.6801 7.20008C13.6801 3.82367 10.9365 1.08008 7.56006 1.08008ZM7.56006 1.80008C10.5469 1.80008 12.9601 4.2132 12.9601 7.20008C12.9601 10.187 10.5469 12.6001 7.56006 12.6001C4.57319 12.6001 2.16006 10.187 2.16006 7.20008C2.16006 4.2132 4.57319 1.80008 7.56006 1.80008Z" fill="#86868B"/>
	</mask>
	<g mask="url(#mask0)"></g>
</svg>
