<?xml version="1.0" encoding="UTF-8" standalone="no"?>
<svg width="16" height="16" viewBox="0 0 16 16" fill="none" xmlns="http://www.w3.org/2000/svg">
	<g clip-path="url(#clip0)">
		<path d="M16.2452 0.699087C16.3279 0.782611 16.393 0.881872 16.4367 0.990997C16.4803 1.10012 16.5016 1.21689 16.4994 1.3344V15.5549C16.5023 15.6725 16.4813 15.7894 16.4376 15.8987C16.3939 16.0079 16.3285 16.1071 16.2453 16.1903C16.1622 16.2734 16.0629 16.3389 15.9537 16.3825C15.8445 16.4262 15.7275 16.4472 15.6099 16.4443H11.5439V10.25H13.6616L13.9263 7.85697H11.5439V6.28986C11.5198 5.99045 11.5982 5.69172 11.7663 5.44277C11.8941 5.31911 12.0478 5.22549 12.2163 5.1687C12.3848 5.11192 12.5639 5.09342 12.7404 5.11453H14.0111V2.99681L13.3334 2.94387C12.931 2.94387 12.5392 2.94387 12.1581 2.94387C11.5891 2.93357 11.0261 3.0607 10.5168 3.31447C10.0623 3.54862 9.69212 3.91878 9.45796 4.37333C9.18108 4.89093 9.03906 5.46994 9.04501 6.05691V7.85697H6.92729V10.25H9.04501V16.4443H1.38946C1.27187 16.4472 1.15491 16.4262 1.04568 16.3825C0.936455 16.3389 0.837243 16.2734 0.754065 16.1903C0.670886 16.1071 0.605477 16.0079 0.561807 15.8987C0.518136 15.7894 0.497116 15.6725 0.500021 15.5549V1.3344C0.497746 1.21689 0.519065 1.10012 0.562715 0.990997C0.606364 0.881872 0.671459 0.782611 0.754147 0.699087C0.836934 0.615396 0.936064 0.549644 1.04536 0.505924C1.15466 0.462204 1.27179 0.441452 1.38946 0.444961H15.6099C15.7276 0.441452 15.8447 0.462204 15.954 0.505924C16.0633 0.549644 16.1625 0.615396 16.2452 0.699087Z"/>
		<mask id="mask0" mask-type="alpha" maskUnits="userSpaceOnUse" x="0" y="0" width="17" height="17">
			<path d="M16.245 0.699209C16.3277 0.782733 16.3928 0.881995 16.4364 0.991119C16.4801 1.10024 16.5014 1.21702 16.4991 1.33452V15.555C16.502 15.6726 16.481 15.7896 16.4373 15.8988C16.3937 16.008 16.3283 16.1072 16.2451 16.1904C16.1619 16.2736 16.0627 16.339 15.9535 16.3827C15.8442 16.4263 15.7273 16.4473 15.6097 16.4444H11.5437V10.2501H13.6614L13.9261 7.85709H11.5437V6.28998C11.5195 5.99057 11.5979 5.69184 11.766 5.4429C11.8938 5.31923 12.0475 5.22561 12.2161 5.16883C12.3846 5.11205 12.5636 5.09354 12.7402 5.11465H14.0108V2.99693L13.3331 2.94399C12.9308 2.94399 12.539 2.94399 12.1578 2.94399C11.5889 2.93369 11.0259 3.06082 10.5166 3.31459C10.062 3.54874 9.69187 3.9189 9.45772 4.37345C9.18084 4.89105 9.03882 5.47006 9.04477 6.05703V7.85709H6.92705V10.2501H9.04477V16.4444H1.38922C1.27162 16.4473 1.15466 16.4263 1.04544 16.3827C0.936211 16.339 0.836999 16.2736 0.75382 16.1904C0.670642 16.1072 0.605233 16.008 0.561563 15.8988C0.517892 15.7896 0.496872 15.6726 0.499777 15.555V1.33452C0.497502 1.21702 0.51882 1.10024 0.56247 0.991119C0.60612 0.881995 0.671215 0.782733 0.753903 0.699209C0.83669 0.615518 0.93582 0.549766 1.04512 0.506046C1.15442 0.462326 1.27155 0.441574 1.38922 0.445083H15.6097C15.7274 0.441574 15.8445 0.462326 15.9538 0.506046C16.0631 0.549766 16.1622 0.615518 16.245 0.699209Z"/>
		</mask>
		<g mask="url(#mask0)"></g>
	</g>
	<defs>
		<clipPath id="clip0">
			<path d="M0.5 0.444946H15.61V15.5549H0.5V0.444946Z" fill="white"/>
		</clipPath>
	</defs>
	<style>
		svg {
			cursor: pointer;
		}
		svg path {
			fill: #86868B;
		}
	</style>
</svg>
