<?xml version="1.0" encoding="UTF-8" standalone="no"?>
<svg width="20" height="16" viewBox="0 0 20 16" fill="none" xmlns="http://www.w3.org/2000/svg">
	<g clip-path="url(#clip0)">
		<path d="M15.6029 0.339031C16.0952 0.564487 16.5381 0.88497 16.9062 1.28208C17.7942 1.09084 18.6457 0.758119 19.4281 0.296647C19.2835 0.762383 19.0535 1.19715 18.7499 1.57877C18.4548 1.95578 18.0962 2.27848 17.6903 2.53241C18.479 2.43805 19.2478 2.21992 19.9685 1.88605C19.4426 2.71066 18.7669 3.42945 17.9764 4.00526C17.9764 4.17479 17.9764 4.34433 17.9764 4.52446C17.9698 5.90688 17.7187 7.27722 17.2347 8.57214C16.758 9.92615 16.04 11.1826 15.1155 12.2808C14.132 13.4146 12.9231 14.3312 11.5658 14.9721C10.0474 15.6828 8.38926 16.0448 6.71283 16.0317C5.63563 16.0289 4.56466 15.8682 3.53402 15.5549C2.50286 15.2349 1.52192 14.7712 0.620117 14.1774C0.93241 14.2236 1.24749 14.2484 1.56316 14.2516C2.47051 14.2467 3.37022 14.0854 4.22277 13.7748C5.0441 13.4801 5.81048 13.0503 6.49032 12.5033C5.92568 12.5016 5.36842 12.3749 4.85853 12.1324C4.35987 11.8941 3.91608 11.555 3.55522 11.1364C3.19485 10.7209 2.9275 10.2332 2.77111 9.70592C3.01137 9.75731 3.25655 9.78218 3.50224 9.78009C3.86085 9.78366 4.21799 9.73366 4.56184 9.63175C3.97271 9.51286 3.42051 9.25492 2.95124 8.87943C2.47012 8.51161 2.08183 8.03622 1.81747 7.49135C1.52984 6.92701 1.38091 6.30223 1.38303 5.66883V5.66883C1.93497 5.98588 2.55851 6.15726 3.19495 6.16685C2.64863 5.79364 2.20719 5.28653 1.91283 4.694C1.58592 4.1043 1.41795 3.43973 1.42542 2.76552C1.42358 2.05639 1.60615 1.35896 1.95522 0.74168C2.93732 1.96705 4.16437 2.97394 5.55787 3.69797C6.97776 4.45541 8.54889 4.8862 10.1565 4.9589C10.0848 4.6605 10.0492 4.35454 10.0506 4.04764C10.0448 3.32853 10.2353 2.62146 10.6016 2.00261C10.9341 1.40567 11.4161 0.905426 12.0002 0.550952C12.5402 0.23049 13.149 0.0440205 13.7758 0.00715046C14.4026 -0.0297196 15.0291 0.0840821 15.6029 0.339031V0.339031Z"/>
		<mask id="mask0" mask-type="alpha" maskUnits="userSpaceOnUse" x="0" y="0" width="20" height="17">
			<path d="M15.6029 0.339153C16.0952 0.564609 16.5381 0.885092 16.9062 1.2822C17.7942 1.09096 18.6457 0.758241 19.4281 0.296769C19.2835 0.762505 19.0535 1.19728 18.7499 1.57889C18.4548 1.9559 18.0962 2.2786 17.6903 2.53253C18.479 2.43817 19.2478 2.22004 19.9685 1.88617C19.4426 2.71078 18.7669 3.42958 17.9764 4.00538C17.9764 4.17491 17.9764 4.34445 17.9764 4.52458C17.9698 5.907 17.7187 7.27735 17.2347 8.57227C16.758 9.92627 16.04 11.1827 15.1155 12.2809C14.132 13.4148 12.9231 14.3314 11.5658 14.9723C10.0474 15.6829 8.38926 16.0449 6.71283 16.0319C5.63563 16.029 4.56466 15.8684 3.53402 15.555C2.50286 15.235 1.52192 14.7713 0.620117 14.1776C0.93241 14.2237 1.24749 14.2485 1.56316 14.2517C2.47051 14.2468 3.37022 14.0855 4.22277 13.7749C5.0441 13.4802 5.81048 13.0505 6.49032 12.5034C5.92568 12.5017 5.36842 12.3751 4.85853 12.1325C4.35987 11.8943 3.91608 11.5551 3.55522 11.1365C3.19485 10.721 2.9275 10.2333 2.77111 9.70604C3.01137 9.75743 3.25655 9.7823 3.50224 9.78021C3.86085 9.78378 4.21799 9.73378 4.56184 9.63187C3.97271 9.51298 3.42051 9.25505 2.95124 8.87955C2.47012 8.51173 2.08183 8.03634 1.81747 7.49147C1.52984 6.92714 1.38091 6.30236 1.38303 5.66895V5.66895C1.93497 5.986 2.55851 6.15739 3.19495 6.16697C2.64863 5.79377 2.20719 5.28665 1.91283 4.69412C1.58592 4.10442 1.41795 3.43985 1.42542 2.76564C1.42358 2.05651 1.60615 1.35908 1.95522 0.741802C2.93732 1.96717 4.16437 2.97407 5.55787 3.69809C6.97776 4.45553 8.54889 4.88632 10.1565 4.95902C10.0848 4.66062 10.0492 4.35467 10.0506 4.04776C10.0448 3.32865 10.2353 2.62159 10.6016 2.00273C10.9341 1.40579 11.4161 0.905548 12.0002 0.551074C12.5402 0.230612 13.149 0.0441426 13.7758 0.00727253C14.4026 -0.0295975 15.0291 0.0842042 15.6029 0.339153V0.339153Z"/>
		</mask>
		<g mask="url(#mask0)"></g>
	</g>
	<defs>
		<clipPath id="clip0">
			<path d="M0.620117 0H19.9685V16H0.620117V0Z" fill="white"/>
		</clipPath>
	</defs>
	<style>
		svg {
			cursor: pointer;
		}
		svg path {
			fill: #ffffff;
		}
	</style>
</svg>
