<?xml version="1.0" encoding="UTF-8" standalone="no"?>
<svg width="17" height="16" viewBox="0 0 17 16" fill="none" xmlns="http://www.w3.org/2000/svg">
	<g clip-path="url(#clip0)">
		<path d="M7.16944 12.4013C7.30133 12.4018 7.43181 12.4286 7.55331 12.4799C7.6748 12.5312 7.7849 12.6062 7.87723 12.7004C7.96962 12.7935 8.04272 12.904 8.09233 13.0254C8.14194 13.1469 8.16708 13.277 8.16632 13.4081C8.16258 13.6711 8.05509 13.9219 7.86726 14.106L7.05978 14.9035C6.70764 15.2572 6.28701 15.5354 5.82365 15.7209C5.36833 15.9081 4.88039 16.0029 4.38813 16C3.89587 16.0029 3.40793 15.9081 2.95262 15.7209C2.49345 15.5502 2.07314 15.2892 1.71648 14.9533C1.36643 14.6058 1.08861 14.1925 0.899034 13.7371C0.708474 13.2808 0.610352 12.7912 0.610352 12.2966C0.610352 11.8021 0.708474 11.3125 0.899034 10.8561C1.09085 10.399 1.36832 9.98283 1.71648 9.62995L4.70713 6.6393C5.24288 6.08144 5.88305 5.63434 6.59125 5.32341C7.18587 5.06105 7.84414 4.9779 8.48533 5.08416C9.11199 5.20133 9.68481 5.51568 10.1202 5.98136C10.217 6.06958 10.2938 6.1775 10.3453 6.29787C10.3969 6.41823 10.4221 6.54825 10.4193 6.67918C10.4193 6.94357 10.3143 7.19713 10.1273 7.38408C9.94035 7.57103 9.68679 7.67606 9.4224 7.67606C9.16088 7.67496 8.91026 7.57113 8.72458 7.38696C8.54262 7.20776 8.30848 7.09094 8.05588 7.05332C7.80328 7.0157 7.54526 7.05922 7.31897 7.17762C6.8587 7.39465 6.44288 7.69552 6.0928 8.06485L3.10215 11.0555C2.92678 11.2113 2.79023 11.4058 2.7034 11.6237C2.61997 11.8436 2.5761 12.0764 2.5738 12.3116C2.57633 12.5402 2.62024 12.7665 2.7034 12.9795C2.79525 13.1975 2.93098 13.3943 3.10215 13.5577C3.32304 13.7832 3.60282 13.9421 3.90963 14.0162C4.2135 14.0961 4.53285 14.0961 4.83673 14.0162C5.14056 13.9418 5.41709 13.7828 5.63424 13.5577L6.45168 12.7502C6.54084 12.6457 6.65061 12.5608 6.77412 12.5008C6.89763 12.4407 7.03222 12.4069 7.16944 12.4013ZM16.3308 2.43245C16.6222 3.11916 16.6991 3.87793 16.5514 4.60914C16.4038 5.34035 16.0384 6.00982 15.5034 6.52964L12.3233 9.6798C11.8905 10.1229 11.3889 10.4932 10.838 10.7764C10.3716 11.0143 9.85624 11.1405 9.33268 11.1452C8.91382 11.1389 8.50064 11.0473 8.11841 10.8759C7.73617 10.7045 7.39292 10.4569 7.10963 10.1483C7.01543 10.056 6.9405 9.94591 6.88916 9.82441C6.83782 9.70292 6.81111 9.57244 6.81056 9.44055C6.81056 9.17616 6.91559 8.9226 7.10254 8.73564C7.28949 8.54869 7.54306 8.44366 7.80745 8.44366C8.06897 8.44476 8.31958 8.54859 8.50527 8.73276C8.63491 8.86724 8.78664 8.97851 8.95386 9.06173C9.07546 9.11246 9.20591 9.13857 9.33766 9.13857C9.46942 9.13857 9.59987 9.11246 9.72147 9.06173C10.184 8.88571 10.6 8.60607 10.9377 8.24428L14.1177 5.09413C14.2832 4.92429 14.4151 4.72474 14.5065 4.50597C14.5944 4.29438 14.6385 4.06716 14.6361 3.83805C14.6393 3.60565 14.5952 3.37501 14.5065 3.16017C14.4197 2.94189 14.2871 2.74474 14.1177 2.58198C13.8069 2.27581 13.4107 2.07078 12.9813 1.99382C12.7597 1.95745 12.5326 1.97668 12.3204 2.04975C12.1081 2.12283 11.9173 2.24748 11.7651 2.41251L10.7682 3.40939C10.675 3.50179 10.5646 3.57488 10.4431 3.62449C10.3217 3.6741 10.1916 3.69925 10.0604 3.69849C9.79746 3.69475 9.54664 3.58725 9.36259 3.39943C9.26812 3.30991 9.19356 3.20152 9.14375 3.08129C9.09394 2.96106 9.07 2.8317 9.07349 2.70161C9.07273 2.57041 9.09788 2.44035 9.14749 2.31889C9.1971 2.19744 9.27019 2.08697 9.36259 1.99382L10.3595 0.996932C10.8078 0.551377 11.3699 0.237565 11.9844 0.0897672C12.5915 -0.0529093 13.2262 -0.0253131 13.8187 0.169518C14.4525 0.360804 15.0306 0.702862 15.5034 1.1664C15.8577 1.52772 16.1387 1.95428 16.3308 2.42248V2.43245Z"/>
		<mask id="mask0" mask-type="alpha" maskUnits="userSpaceOnUse" x="0" y="-1" width="17" height="17">
			<path d="M7.16944 12.4012C7.30133 12.4017 7.43181 12.4284 7.55331 12.4798C7.6748 12.5311 7.7849 12.606 7.87723 12.7002C7.96962 12.7934 8.04272 12.9039 8.09233 13.0253C8.14194 13.1468 8.16708 13.2768 8.16632 13.408C8.16258 13.671 8.05509 13.9218 7.86726 14.1058L7.05978 14.9034C6.70764 15.2571 6.28701 15.5352 5.82365 15.7208C5.36833 15.9079 4.88039 16.0028 4.38813 15.9999C3.89587 16.0028 3.40793 15.9079 2.95262 15.7208C2.49345 15.55 2.07314 15.289 1.71648 14.9532C1.36643 14.6057 1.08861 14.1924 0.899034 13.737C0.708474 13.2807 0.610352 12.791 0.610352 12.2965C0.610352 11.802 0.708474 11.3123 0.899034 10.856C1.09085 10.3989 1.36832 9.9827 1.71648 9.62983L4.70713 6.63918C5.24288 6.08132 5.88305 5.63422 6.59125 5.32329C7.18587 5.06093 7.84414 4.97778 8.48533 5.08404C9.11199 5.2012 9.68481 5.51556 10.1202 5.98123C10.217 6.06946 10.2938 6.17738 10.3453 6.29775C10.3969 6.41811 10.4221 6.54813 10.4193 6.67905C10.4193 6.94344 10.3143 7.19701 10.1273 7.38396C9.94035 7.57091 9.68679 7.67594 9.4224 7.67594C9.16088 7.67484 8.91026 7.57101 8.72458 7.38684C8.54262 7.20764 8.30848 7.09082 8.05588 7.0532C7.80328 7.01557 7.54526 7.0591 7.31897 7.1775C6.8587 7.39453 6.44288 7.6954 6.0928 8.06472L3.10215 11.0554C2.92678 11.2111 2.79023 11.4057 2.7034 11.6236C2.61997 11.8434 2.5761 12.0763 2.5738 12.3115C2.57633 12.5401 2.62024 12.7664 2.7034 12.9794C2.79525 13.1974 2.93098 13.3942 3.10215 13.5576C3.32304 13.783 3.60282 13.9419 3.90963 14.0161C4.2135 14.096 4.53285 14.096 4.83673 14.0161C5.14056 13.9417 5.41709 13.7827 5.63424 13.5576L6.45168 12.7501C6.54084 12.6456 6.65061 12.5607 6.77412 12.5007C6.89763 12.4406 7.03222 12.4068 7.16944 12.4012ZM16.3308 2.43232C16.6222 3.11904 16.6991 3.87781 16.5514 4.60902C16.4038 5.34023 16.0384 6.0097 15.5034 6.52952L12.3233 9.67968C11.8905 10.1228 11.3889 10.4931 10.838 10.7763C10.3716 11.0141 9.85624 11.1404 9.33268 11.1451C8.91382 11.1388 8.50064 11.0472 8.11841 10.8758C7.73617 10.7044 7.39292 10.4568 7.10963 10.1482C7.01543 10.0559 6.9405 9.94579 6.88916 9.82429C6.83782 9.70279 6.81111 9.57232 6.81056 9.44042C6.81056 9.17603 6.91559 8.92247 7.10254 8.73552C7.28949 8.54857 7.54306 8.44354 7.80745 8.44354C8.06897 8.44464 8.31958 8.54847 8.50527 8.73264C8.63491 8.86712 8.78664 8.97838 8.95386 9.06161C9.07546 9.11233 9.20591 9.13845 9.33766 9.13845C9.46942 9.13845 9.59987 9.11233 9.72147 9.06161C10.184 8.88559 10.6 8.60595 10.9377 8.24416L14.1177 5.09401C14.2832 4.92416 14.4151 4.72462 14.5065 4.50585C14.5944 4.29426 14.6385 4.06704 14.6361 3.83793C14.6393 3.60552 14.5952 3.37489 14.5065 3.16005C14.4197 2.94177 14.2871 2.74461 14.1177 2.58186C13.8069 2.27568 13.4107 2.07066 12.9813 1.9937C12.7597 1.95733 12.5326 1.97655 12.3204 2.04963C12.1081 2.12271 11.9173 2.24736 11.7651 2.41239L10.7682 3.40927C10.675 3.50166 10.5646 3.57476 10.4431 3.62437C10.3217 3.67398 10.1916 3.69913 10.0604 3.69837C9.79746 3.69462 9.54664 3.58713 9.36259 3.3993C9.26812 3.30979 9.19356 3.2014 9.14375 3.08117C9.09394 2.96094 9.07 2.83157 9.07349 2.70148C9.07273 2.57029 9.09788 2.44023 9.14749 2.31877C9.1971 2.19731 9.27019 2.08684 9.36259 1.9937L10.3595 0.99681C10.8078 0.551255 11.3699 0.237443 11.9844 0.0896452C12.5915 -0.0530313 13.2262 -0.0254352 13.8187 0.169396C14.4525 0.360682 15.0306 0.70274 15.5034 1.16628C15.8577 1.5276 16.1387 1.95415 16.3308 2.42236V2.43232Z"/>
		</mask>
		<g mask="url(#mask0)"></g>
	</g>
	<defs>
		<clipPath id="clip0">
			<path d="M0.609863 0H16.6198V16H0.609863V0Z" fill="white"/>
		</clipPath>
	</defs>
	<style>
		svg {
			cursor: pointer;
		}
		svg path {
			fill: #0071E3;
		}
	</style>
</svg>
