<?xml version="1.0" encoding="UTF-8" standalone="no"?>
<svg width="16" height="16" viewBox="0 0 16 16" fill="none" xmlns="http://www.w3.org/2000/svg">
	<path fill-rule="evenodd" clip-rule="evenodd" d="M14.85 5.19998C14.774 4.69797 14.586 4.21949 14.3 3.79998C13.9189 3.44077 13.4229 3.22819 12.9 3.19998C10.95 3.09998 8 3.09998 8 3.09998C8 3.09998 5.05 3.09998 3.1 3.24998C2.57422 3.21245 2.05964 3.4146 1.7 3.79998C1.40665 4.21557 1.21798 4.69584 1.15 5.19998C1.05792 5.94658 1.00785 6.69776 1 7.44998V8.49998C1.00529 9.25229 1.05538 10.0036 1.15 10.75C1.22602 11.252 1.41399 11.7305 1.7 12.15C2.13053 12.5252 2.67904 12.7375 3.25 12.75C4.35 12.85 8 12.9 8 12.9C8 12.9 10.95 12.9 12.9 12.75C13.4229 12.7218 13.9189 12.5092 14.3 12.15C14.5933 11.7344 14.782 11.2541 14.85 10.75C14.9421 10.0034 14.9922 9.25219 15 8.49998V7.44998C14.9922 6.69776 14.9421 5.94658 14.85 5.19998ZM6.55001 9.79997V5.84998L10.35 7.79998L6.55001 9.79997Z"/>
	<mask id="mask0" mask-type="alpha" maskUnits="userSpaceOnUse" x="1" y="3" width="14" height="10">
		<path fill-rule="evenodd" clip-rule="evenodd" d="M14.85 5.19998C14.774 4.69797 14.586 4.21949 14.3 3.79998C13.9189 3.44077 13.4229 3.22819 12.9 3.19998C10.95 3.09998 8 3.09998 8 3.09998C8 3.09998 5.05 3.09998 3.1 3.24998C2.57422 3.21245 2.05964 3.4146 1.7 3.79998C1.40665 4.21557 1.21798 4.69584 1.15 5.19998C1.05792 5.94658 1.00785 6.69776 1 7.44998V8.49998C1.00529 9.25229 1.05538 10.0036 1.15 10.75C1.22602 11.252 1.41399 11.7305 1.7 12.15C2.13053 12.5252 2.67904 12.7375 3.25 12.75C4.35 12.85 8 12.9 8 12.9C8 12.9 10.95 12.9 12.9 12.75C13.4229 12.7218 13.9189 12.5092 14.3 12.15C14.5933 11.7344 14.782 11.2541 14.85 10.75C14.9421 10.0034 14.9922 9.25219 15 8.49998V7.44998C14.9922 6.69776 14.9421 5.94658 14.85 5.19998ZM6.55001 9.79997V5.84998L10.35 7.79998L6.55001 9.79997Z" fill="white"/>
	</mask>
	<g mask="url(#mask0)"></g>
	<style>
		svg {
			cursor: pointer;
		}
		svg path {
			fill: #86868B;
		}
	</style>
</svg>
