<?xml version="1.0" encoding="UTF-8" standalone="no"?>
<svg width="18" height="12" viewBox="0 0 18 12" fill="none" xmlns="http://www.w3.org/2000/svg">
	<g clip-path="url(#clip0)">
		<path d="M5.80818 5.97505L0.968176 10.8051C0.963235 10.7686 0.963235 10.7316 0.968176 10.6951L0.968176 1.30505C0.960478 1.25535 0.960478 1.20476 0.968176 1.15505L5.80818 5.97505ZM11.8682 6.32505L16.7082 11.1551C16.649 11.1691 16.5874 11.1691 16.5282 11.1551H1.46818C1.41527 11.1646 1.36108 11.1646 1.30818 11.1551L6.14818 6.31505L8.14818 8.31505C8.25274 8.42824 8.37953 8.51863 8.52063 8.58058C8.66172 8.64252 8.81408 8.67468 8.96818 8.67505C9.13245 8.67747 9.29545 8.64584 9.4469 8.58216C9.59836 8.51848 9.73498 8.42413 9.84818 8.30505L11.8682 6.32505ZM8.48818 7.96505L1.35818 0.805054H16.5282H16.6682L9.53818 7.96505C9.39677 8.10015 9.20874 8.17553 9.01318 8.17553C8.81761 8.17553 8.62958 8.10015 8.48818 7.96505ZM17.0282 1.30505V10.6951L16.9682 10.8051L12.1782 6.00505L16.9682 1.18505C16.973 1.22491 16.973 1.2652 16.9682 1.30505H17.0282Z"/>
		<mask id="mask0" mask-type="alpha" maskUnits="userSpaceOnUse" x="0" y="0" width="18" height="12">
			<path d="M5.80818 5.97505L0.968176 10.8051C0.963235 10.7686 0.963235 10.7316 0.968176 10.6951L0.968176 1.30505C0.960478 1.25535 0.960478 1.20476 0.968176 1.15505L5.80818 5.97505ZM11.8682 6.32505L16.7082 11.1551C16.649 11.1691 16.5874 11.1691 16.5282 11.1551H1.46818C1.41527 11.1646 1.36108 11.1646 1.30818 11.1551L6.14818 6.31505L8.14818 8.31505C8.25274 8.42824 8.37953 8.51863 8.52063 8.58058C8.66172 8.64252 8.81408 8.67468 8.96818 8.67505C9.13245 8.67747 9.29545 8.64584 9.4469 8.58216C9.59836 8.51848 9.73498 8.42413 9.84818 8.30505L11.8682 6.32505ZM8.48818 7.96505L1.35818 0.805054H16.5282H16.6682L9.53818 7.96505C9.39677 8.10015 9.20874 8.17553 9.01318 8.17553C8.81761 8.17553 8.62958 8.10015 8.48818 7.96505ZM17.0282 1.30505V10.6951L16.9682 10.8051L12.1782 6.00505L16.9682 1.18505C16.973 1.22491 16.973 1.2652 16.9682 1.30505H17.0282Z"/>
		</mask>
		<g mask="url(#mask0)"></g>
	</g>
	<defs>
		<clipPath id="clip0">
			<path d="M0.968262 0.805054H17.0283V11.1951H0.968262V0.805054Z" fill="white"/>
		</clipPath>
	</defs>
	<style>
		svg {
			cursor: pointer;
		}
		svg path {
			fill: #86868B;
		}
	</style>
</svg>
