<svg width="17" height="17" viewBox="0 0 17 17" fill="none" xmlns="http://www.w3.org/2000/svg">
	<g clip-path="url(#clip0)">
		<path d="M11.6784 16.3699C10.2066 16.9937 8.58168 17.1623 7.01316 16.854C5.44465 16.5456 4.00448 15.7744 2.87838 14.6399C2.14915 13.9061 1.56552 13.0409 1.15838 12.0899C0.740328 11.1028 0.524902 10.0418 0.524902 8.96988C0.524902 7.89794 0.740328 6.83694 1.15838 5.84988C1.96945 3.91773 3.50624 2.38095 5.43838 1.56988C6.42544 1.15183 7.48645 0.936401 8.55838 0.936401C9.63032 0.936401 10.6913 1.15183 11.6784 1.56988C13.6045 2.38987 15.1384 3.92374 15.9584 5.84988C16.3764 6.83694 16.5919 7.89794 16.5919 8.96988C16.5919 10.0418 16.3764 11.1028 15.9584 12.0899C15.5476 13.0413 14.9606 13.9065 14.2284 14.6399C13.4976 15.3752 12.6317 15.9626 11.6784 16.3699ZM11.2884 2.52988C10.424 2.16684 9.4959 1.97985 8.55838 1.97985C7.62086 1.97985 6.69276 2.16684 5.82838 2.52988C4.15267 3.23161 2.82011 4.56417 2.11838 6.23988C1.74032 7.09045 1.53956 8.00914 1.52838 8.93988C1.52568 9.8809 1.71274 10.8128 2.07838 11.6799C2.61645 12.9448 3.51503 14.0233 4.66206 14.7809C5.80908 15.5385 7.15377 15.9416 8.52838 15.9399C9.46603 15.9412 10.3944 15.7542 11.2584 15.3899C12.1045 15.0635 12.8765 14.5704 13.5284 13.9399C14.1702 13.3101 14.6801 12.5589 15.0284 11.7299C15.3836 10.8437 15.5537 9.89425 15.5284 8.93988C15.5418 7.09046 14.8228 5.31088 13.5284 3.98988C12.8956 3.3543 12.1449 2.84819 11.3184 2.49988L11.2884 2.52988ZM11.4384 8.85988L9.06838 11.2399V4.71988H8.06838V11.2099L5.66838 8.85988L4.91838 9.59988L8.52838 13.2299L12.1584 9.59988L11.4384 8.85988Z"/>
		<mask id="mask0" mask-type="alpha" maskUnits="userSpaceOnUse" x="0" y="0" width="17" height="18">
			<path d="M11.6784 16.37C10.2066 16.9938 8.58168 17.1624 7.01316 16.8541C5.44465 16.5457 4.00448 15.7746 2.87838 14.64C2.14915 13.9063 1.56552 13.041 1.15838 12.09C0.740328 11.1029 0.524902 10.0419 0.524902 8.97C0.524902 7.89807 0.740328 6.83706 1.15838 5.85C1.96945 3.91786 3.50624 2.38107 5.43838 1.57C6.42544 1.15195 7.48645 0.936523 8.55838 0.936523C9.63032 0.936523 10.6913 1.15195 11.6784 1.57C13.6045 2.38999 15.1384 3.92386 15.9584 5.85C16.3764 6.83706 16.5919 7.89807 16.5919 8.97C16.5919 10.0419 16.3764 11.1029 15.9584 12.09C15.5476 13.0415 14.9606 13.9067 14.2284 14.64C13.4976 15.3753 12.6317 15.9627 11.6784 16.37ZM11.2884 2.53C10.424 2.16697 9.4959 1.97997 8.55838 1.97997C7.62086 1.97997 6.69276 2.16697 5.82838 2.53C4.15267 3.23173 2.82011 4.56429 2.11838 6.24C1.74032 7.09057 1.53956 8.00927 1.52838 8.94C1.52568 9.88102 1.71274 10.8129 2.07838 11.68C2.61645 12.9449 3.51503 14.0235 4.66206 14.781C5.80908 15.5386 7.15377 15.9417 8.52838 15.94C9.46603 15.9414 10.3944 15.7543 11.2584 15.39C12.1045 15.0636 12.8765 14.5705 13.5284 13.94C14.1702 13.3103 14.6801 12.559 15.0284 11.73C15.3836 10.8438 15.5537 9.89437 15.5284 8.94C15.5418 7.09058 14.8228 5.31101 13.5284 3.99C12.8956 3.35442 12.1449 2.84832 11.3184 2.5L11.2884 2.53ZM11.4384 8.86L9.06838 11.24V4.72H8.06838V11.21L5.66838 8.86L4.91838 9.6L8.52838 13.23L12.1584 9.6L11.4384 8.86Z"/>
		</mask>
		<g mask="url(#mask0)"></g>
	</g>
	<defs>
		<clipPath id="clip0">
			<path d="M0.52832 0.939941H16.5883V16.9999H0.52832V0.939941Z" fill="white"/>
		</clipPath>
	</defs>
	<style>
		svg {
			cursor: pointer;
		}
		svg path {
			fill: #0071E3;
		}
	</style>
</svg>