<?xml version="1.0" encoding="UTF-8" standalone="no"?>
<svg width="13" height="14" viewBox="0 0 13 14" fill="none" xmlns="http://www.w3.org/2000/svg">
	<path d="M9.02242 1.5H3.97761C2.33573 1.5 1 2.83573 1 4.47761V9.5225C1 11.1643 2.33573 12.5 3.97761 12.5H9.0225C10.6643 12.5 12 11.1643 12 9.5225V4.47761C12 2.83573 10.6643 1.5 9.02242 1.5V1.5ZM6.50001 10.0077C4.84152 10.0077 3.49228 8.65851 3.49228 7.00001C3.49228 5.34152 4.84152 3.99228 6.50001 3.99228C8.15851 3.99228 9.50775 5.34152 9.50775 7.00001C9.50775 8.65851 8.15851 10.0077 6.50001 10.0077ZM9.57967 4.7016C9.08956 4.7016 8.69092 4.30296 8.69092 3.81285C8.69092 3.32274 9.08956 2.92401 9.57967 2.92401C10.0698 2.92401 10.4685 3.32274 10.4685 3.81285C10.4685 4.30296 10.0698 4.7016 9.57967 4.7016Z"/>
	<path d="M6.50001 4.63708C5.19718 4.63708 4.13715 5.69704 4.13715 6.99995C4.13715 8.30278 5.19718 9.36282 6.50001 9.36282C7.80293 9.36282 8.86288 8.30278 8.86288 6.99995C8.86288 5.69704 7.80293 4.63708 6.50001 4.63708Z"/>
	<path d="M9.57982 3.56885C9.44537 3.56885 9.33594 3.67828 9.33594 3.81273C9.33594 3.94717 9.44537 4.05661 9.57982 4.05661C9.71435 4.05661 9.82378 3.94726 9.82378 3.81273C9.82378 3.6782 9.71435 3.56885 9.57982 3.56885Z"/>
	<style>
		svg {
			cursor: pointer;
		}
		svg path {
			fill: #86868B;
		}
	</style>
</svg>