<?xml version="1.0" encoding="UTF-8" standalone="no"?>
<svg width="16" height="16" viewBox="0 0 16 16" fill="none" xmlns="http://www.w3.org/2000/svg">
	<path fill-rule="evenodd" clip-rule="evenodd" d="M15 3.65001C14.4838 3.9041 13.9237 4.05686 13.35 4.10001C13.9597 3.75044 14.4083 3.17615 14.6 2.50001C14.0448 2.83537 13.4359 3.07219 12.8 3.20001C11.9965 2.3474 10.7549 2.06989 9.66486 2.49929C8.57484 2.92869 7.85608 3.97847 7.84999 5.15001C7.84999 5.40001 7.89999 5.60001 7.89999 5.80001C5.59074 5.70516 3.43708 4.61008 1.99999 2.80001C1.73972 3.25722 1.60194 3.7739 1.59999 4.30001C1.59055 5.27063 2.08185 6.17765 2.89999 6.70001C2.44558 6.68439 2.00082 6.56464 1.59999 6.35001V6.40001C1.59828 7.76331 2.56231 8.93691 3.89999 9.20001C3.65387 9.25782 3.40266 9.29131 3.14999 9.30001C2.96524 9.30822 2.78023 9.2914 2.59999 9.25001C2.98658 10.4205 4.06764 11.2213 5.29999 11.25C4.28538 12.044 3.03825 12.4832 1.74999 12.5C1.51554 12.5083 1.28088 12.4915 1.04999 12.45C2.36446 13.2901 3.88999 13.7409 5.44999 13.75C10.75 13.75 13.6 9.35001 13.6 5.60001V5.25001C14.132 4.77763 14.6024 4.24006 15 3.65001Z"/>
	<mask id="mask0" mask-type="alpha" maskUnits="userSpaceOnUse" x="1" y="2" width="14" height="12">
		<path fill-rule="evenodd" clip-rule="evenodd" d="M15 3.65001C14.4838 3.9041 13.9237 4.05686 13.35 4.10001C13.9597 3.75044 14.4083 3.17615 14.6 2.50001C14.0448 2.83537 13.4359 3.07219 12.8 3.20001C11.9965 2.3474 10.7549 2.06989 9.66486 2.49929C8.57484 2.92869 7.85608 3.97847 7.84999 5.15001C7.84999 5.40001 7.89999 5.60001 7.89999 5.80001C5.59074 5.70516 3.43708 4.61008 1.99999 2.80001C1.73972 3.25722 1.60194 3.7739 1.59999 4.30001C1.59055 5.27063 2.08185 6.17765 2.89999 6.70001C2.44558 6.68439 2.00082 6.56464 1.59999 6.35001V6.40001C1.59828 7.76331 2.5623 8.93691 3.89999 9.20001C3.65387 9.25782 3.40266 9.29131 3.14999 9.30001C2.96524 9.30822 2.78023 9.2914 2.59999 9.25001C2.98658 10.4205 4.06764 11.2213 5.29999 11.25C4.28538 12.044 3.03825 12.4832 1.74999 12.5C1.51554 12.5083 1.28088 12.4915 1.04999 12.45C2.36446 13.2901 3.88999 13.7409 5.44999 13.75C10.75 13.75 13.6 9.35001 13.6 5.60001V5.25001C14.132 4.77763 14.6024 4.24006 15 3.65001Z" fill="white"/>
	</mask>
	<g mask="url(#mask0)"></g>
	<style>
		svg {
			cursor: pointer;
		}
		svg path {
			fill: #86868B;
		}
	</style>
</svg>
