<?xml version="1.0" encoding="UTF-8" standalone="no"?>
<svg width="18" height="18" viewBox="0 0 18 18" fill="none" xmlns="http://www.w3.org/2000/svg">
	<path stroke="#ffffff" stroke-width="0.5" d="M8.95484 1.19263C7.26594 1.2306 6.19719 1.91403 5.73734 2.97013C5.3 3.9756 5.39141 5.24263 5.70359 6.55888C5.53625 6.75575 5.39844 7.03278 5.43359 7.44763V7.47013C5.49406 7.90888 5.62625 8.21825 5.79359 8.43763C5.87375 8.54169 5.98766 8.54732 6.08609 8.60638C6.17328 9.09716 6.36875 9.56544 6.59234 9.93388C6.60359 9.98732 6.62609 10.0365 6.65984 10.0801C6.65984 10.0801 6.69641 10.1265 6.70484 10.1364C6.81734 10.3051 6.87359 10.54 6.87359 10.8001C6.87359 11.0772 6.86937 11.3345 6.83984 11.6214C6.73156 11.8942 6.46156 12.1122 6.02984 12.3301C5.57844 12.5579 4.98781 12.7675 4.38734 13.0276C3.78687 13.2878 3.17797 13.6 2.68859 14.0964C2.19922 14.5928 1.84906 15.2804 1.79984 16.1776L1.77734 16.5601H16.2223L16.1998 16.1776C16.1506 15.2804 15.8089 14.5942 15.3223 14.0964C14.8358 13.5986 14.2241 13.2878 13.6236 13.0276C13.0231 12.7675 12.4283 12.5593 11.9698 12.3301C11.5255 12.1079 11.247 11.8815 11.1261 11.5989C11.098 11.2586 11.0923 10.99 11.0923 10.6876C11.0923 10.495 11.1584 10.3206 11.2723 10.1476C11.2752 10.1434 11.2808 10.1406 11.2836 10.1364C11.285 10.1336 11.3061 10.1139 11.3061 10.1139C11.3511 10.0675 11.382 10.0084 11.3961 9.94513C11.6141 9.57107 11.7955 9.09575 11.8798 8.61763C11.9923 8.55857 12.1189 8.55153 12.2061 8.43763C12.3791 8.21122 12.4803 7.88919 12.5211 7.44763C12.5534 7.06653 12.4437 6.7895 12.2736 6.58138C12.4606 6.00482 12.6828 5.08232 12.6111 4.14013C12.5717 3.62263 12.4353 3.10653 12.1273 2.67763C11.8489 2.2895 11.3989 2.02372 10.8336 1.90138C10.4525 1.39231 9.76062 1.19263 8.96609 1.19263H8.95484ZM8.96609 1.91263C8.97031 1.91263 8.97312 1.91263 8.97734 1.91263C9.69594 1.91544 10.1558 2.11794 10.3048 2.37388L10.3948 2.53138L10.5748 2.55388C11.0698 2.62278 11.3412 2.81403 11.5423 3.09388C11.7434 3.37372 11.8587 3.76466 11.8911 4.19638C11.9572 5.06122 11.7069 6.07513 11.5423 6.53638L11.4298 6.84013L11.7111 6.98638C11.7083 6.99622 11.8264 7.11575 11.8123 7.38013C11.8123 7.38575 11.8123 7.38575 11.8123 7.39138C11.7786 7.73028 11.6914 7.92153 11.6323 7.99888C11.5719 8.07763 11.5409 8.06638 11.5536 8.06638H11.2386L11.1936 8.38138C11.1317 8.84825 10.8941 9.43607 10.6873 9.73138H10.6761C10.655 9.76232 10.6395 9.79888 10.6198 9.83263C10.5256 9.94232 10.3836 10.0872 10.1811 10.2601C9.845 10.547 9.39922 10.8001 8.99984 10.8001C8.60328 10.8001 8.15328 10.5343 7.80734 10.2376C7.50781 9.98028 7.32922 9.7595 7.27859 9.69763C7.27719 9.69482 7.28 9.68919 7.27859 9.68638C7.06625 9.37982 6.82297 8.84263 6.76109 8.38138L6.72734 8.06638H6.43484C6.42219 8.06075 6.38844 8.04247 6.35609 7.99888C6.29281 7.91591 6.20281 7.72185 6.15359 7.39138C6.15359 7.38435 6.15359 7.38716 6.15359 7.38013C6.15219 7.3745 6.155 7.3745 6.15359 7.36888C6.14797 7.09607 6.31672 6.94419 6.28859 6.96388L6.49109 6.81763L6.43484 6.57013C6.10297 5.2581 6.05094 4.06982 6.40109 3.26263C6.75125 2.45825 7.46 1.94919 8.96609 1.91263ZM7.59359 10.9914C7.97328 11.2712 8.44859 11.5201 8.99984 11.5201C9.53984 11.5201 10.0025 11.2839 10.3723 11.0139C10.3737 11.2333 10.3808 11.4583 10.4061 11.7339V11.7789L10.4286 11.8239C10.4919 11.9898 10.5819 12.1304 10.6873 12.2626C10.6831 12.2767 10.6789 12.2922 10.6761 12.3076C10.6761 12.3076 10.5903 12.5439 10.3386 12.8026C10.0869 13.0614 9.69594 13.3201 8.99984 13.3201C8.30656 13.3201 7.90156 13.0501 7.63859 12.7801C7.37562 12.5101 7.28984 12.2626 7.28984 12.2626C7.39391 12.1276 7.47969 11.9828 7.53734 11.8126L7.55984 11.7451C7.59078 11.4723 7.59359 11.2262 7.59359 10.9914ZM11.2498 12.7576C11.3764 12.8392 11.5072 12.9151 11.6436 12.9826C12.1695 13.2442 12.7658 13.4467 13.3311 13.6914C13.8964 13.9361 14.4237 14.2131 14.8048 14.6026C15.1086 14.9134 15.2914 15.3268 15.3898 15.8401H2.60984C2.70828 15.3268 2.88969 14.9134 3.19484 14.6026C3.57734 14.2131 4.11453 13.9361 4.67984 13.6914C5.24516 13.4467 5.83578 13.2456 6.35609 12.9826C6.48547 12.9165 6.61766 12.8476 6.73859 12.7689C6.81875 12.9137 6.9425 13.1022 7.12109 13.2864C7.48812 13.6647 8.10969 14.0401 8.99984 14.0401C9.88719 14.0401 10.4961 13.6689 10.8561 13.2976C11.053 13.0951 11.1725 12.9067 11.2498 12.7576Z" fill="white"/>
	<mask id="mask0" mask-type="alpha" maskUnits="userSpaceOnUse" x="1" y="1" width="16" height="16">
		<path d="M8.95484 1.19263C7.26594 1.2306 6.19719 1.91403 5.73734 2.97013C5.3 3.9756 5.39141 5.24263 5.70359 6.55888C5.53625 6.75575 5.39844 7.03278 5.43359 7.44763V7.47013C5.49406 7.90888 5.62625 8.21825 5.79359 8.43763C5.87375 8.54169 5.98766 8.54732 6.08609 8.60638C6.17328 9.09716 6.36875 9.56544 6.59234 9.93388C6.60359 9.98732 6.62609 10.0365 6.65984 10.0801C6.65984 10.0801 6.69641 10.1265 6.70484 10.1364C6.81734 10.3051 6.87359 10.54 6.87359 10.8001C6.87359 11.0772 6.86937 11.3345 6.83984 11.6214C6.73156 11.8942 6.46156 12.1122 6.02984 12.3301C5.57844 12.5579 4.98781 12.7675 4.38734 13.0276C3.78687 13.2878 3.17797 13.6 2.68859 14.0964C2.19922 14.5928 1.84906 15.2804 1.79984 16.1776L1.77734 16.5601H16.2223L16.1998 16.1776C16.1506 15.2804 15.8089 14.5942 15.3223 14.0964C14.8358 13.5986 14.2241 13.2878 13.6236 13.0276C13.0231 12.7675 12.4283 12.5593 11.9698 12.3301C11.5255 12.1079 11.247 11.8815 11.1261 11.5989C11.098 11.2586 11.0923 10.99 11.0923 10.6876C11.0923 10.495 11.1584 10.3206 11.2723 10.1476C11.2752 10.1434 11.2808 10.1406 11.2836 10.1364C11.285 10.1336 11.3061 10.1139 11.3061 10.1139C11.3511 10.0675 11.382 10.0084 11.3961 9.94513C11.6141 9.57107 11.7955 9.09575 11.8798 8.61763C11.9923 8.55857 12.1189 8.55153 12.2061 8.43763C12.3791 8.21122 12.4803 7.88919 12.5211 7.44763C12.5534 7.06653 12.4437 6.7895 12.2736 6.58138C12.4606 6.00482 12.6828 5.08232 12.6111 4.14013C12.5717 3.62263 12.4353 3.10653 12.1273 2.67763C11.8489 2.2895 11.3989 2.02372 10.8336 1.90138C10.4525 1.39231 9.76062 1.19263 8.96609 1.19263H8.95484ZM8.96609 1.91263C8.97031 1.91263 8.97312 1.91263 8.97734 1.91263C9.69594 1.91544 10.1558 2.11794 10.3048 2.37388L10.3948 2.53138L10.5748 2.55388C11.0698 2.62278 11.3412 2.81403 11.5423 3.09388C11.7434 3.37372 11.8587 3.76466 11.8911 4.19638C11.9572 5.06122 11.7069 6.07513 11.5423 6.53638L11.4298 6.84013L11.7111 6.98638C11.7083 6.99622 11.8264 7.11575 11.8123 7.38013C11.8123 7.38575 11.8123 7.38575 11.8123 7.39138C11.7786 7.73028 11.6914 7.92153 11.6323 7.99888C11.5719 8.07763 11.5409 8.06638 11.5536 8.06638H11.2386L11.1936 8.38138C11.1317 8.84825 10.8941 9.43607 10.6873 9.73138H10.6761C10.655 9.76232 10.6395 9.79888 10.6198 9.83263C10.5256 9.94232 10.3836 10.0872 10.1811 10.2601C9.845 10.547 9.39922 10.8001 8.99984 10.8001C8.60328 10.8001 8.15328 10.5343 7.80734 10.2376C7.50781 9.98028 7.32922 9.7595 7.27859 9.69763C7.27719 9.69482 7.28 9.68919 7.27859 9.68638C7.06625 9.37982 6.82297 8.84263 6.76109 8.38138L6.72734 8.06638H6.43484C6.42219 8.06075 6.38844 8.04247 6.35609 7.99888C6.29281 7.91591 6.20281 7.72185 6.15359 7.39138C6.15359 7.38435 6.15359 7.38716 6.15359 7.38013C6.15219 7.3745 6.155 7.3745 6.15359 7.36888C6.14797 7.09607 6.31672 6.94419 6.28859 6.96388L6.49109 6.81763L6.43484 6.57013C6.10297 5.2581 6.05094 4.06982 6.40109 3.26263C6.75125 2.45825 7.46 1.94919 8.96609 1.91263ZM7.59359 10.9914C7.97328 11.2712 8.44859 11.5201 8.99984 11.5201C9.53984 11.5201 10.0025 11.2839 10.3723 11.0139C10.3737 11.2333 10.3808 11.4583 10.4061 11.7339V11.7789L10.4286 11.8239C10.4919 11.9898 10.5819 12.1304 10.6873 12.2626C10.6831 12.2767 10.6789 12.2922 10.6761 12.3076C10.6761 12.3076 10.5903 12.5439 10.3386 12.8026C10.0869 13.0614 9.69594 13.3201 8.99984 13.3201C8.30656 13.3201 7.90156 13.0501 7.63859 12.7801C7.37562 12.5101 7.28984 12.2626 7.28984 12.2626C7.39391 12.1276 7.47969 11.9828 7.53734 11.8126L7.55984 11.7451C7.59078 11.4723 7.59359 11.2262 7.59359 10.9914ZM11.2498 12.7576C11.3764 12.8392 11.5072 12.9151 11.6436 12.9826C12.1695 13.2442 12.7658 13.4467 13.3311 13.6914C13.8964 13.9361 14.4237 14.2131 14.8048 14.6026C15.1086 14.9134 15.2914 15.3268 15.3898 15.8401H2.60984C2.70828 15.3268 2.88969 14.9134 3.19484 14.6026C3.57734 14.2131 4.11453 13.9361 4.67984 13.6914C5.24516 13.4467 5.83578 13.2456 6.35609 12.9826C6.48547 12.9165 6.61766 12.8476 6.73859 12.7689C6.81875 12.9137 6.9425 13.1022 7.12109 13.2864C7.48812 13.6647 8.10969 14.0401 8.99984 14.0401C9.88719 14.0401 10.4961 13.6689 10.8561 13.2976C11.053 13.0951 11.1725 12.9067 11.2498 12.7576Z" fill="#86868B"/>
	</mask>
	<g mask="url(#mask0)"></g>
</svg>
