<svg width="33" height="33" viewBox="0 0 33 33" fill="none" xmlns="http://www.w3.org/2000/svg">
	<path d="M4.97998 1.9856V31.4256H28.02V10.0456L27.84 9.8456L20.16 2.1656L19.96 1.9856H4.97998ZM6.25998 3.2656H19.06V10.9456H26.74V30.1456H6.25998V3.2656ZM20.34 4.1856L25.82 9.6656H20.34V4.1856ZM10.1 14.7856V16.0656H22.9V14.7856H10.1ZM10.1 18.6256V19.9056H20.34V18.6256H10.1ZM10.1 22.4656V23.7456H22.9V22.4656H10.1Z" fill="#5B5B5B"/>
	<mask id="mask0" mask-type="alpha" maskUnits="userSpaceOnUse" x="4" y="1" width="25" height="31">
		<path d="M4.97998 1.9856V31.4256H28.02V10.0456L27.84 9.8456L20.16 2.1656L19.96 1.9856H4.97998ZM6.25998 3.2656H19.06V10.9456H26.74V30.1456H6.25998V3.2656ZM20.34 4.1856L25.82 9.6656H20.34V4.1856ZM10.1 14.7856V16.0656H22.9V14.7856H10.1ZM10.1 18.6256V19.9056H20.34V18.6256H10.1ZM10.1 22.4656V23.7456H22.9V22.4656H10.1Z" fill="#5B5B5B"/>
	</mask>
	<g mask="url(#mask0)"></g>
</svg>
