<svg width="149" height="24" viewBox="0 0 149 24" fill="none" xmlns="http://www.w3.org/2000/svg">
	<path d="M82.2777 11.438V23.6768H77.3558V12.4885C77.3557 11.97 77.1832 11.4663 76.8653 11.0566C76.5474 10.647 76.1023 10.3547 75.6 10.2259H75.556C75.3807 10.1813 75.2005 10.1591 75.0197 10.1598H74.8507C73.9689 10.1198 73.107 10.4303 72.4532 11.0235C71.7995 11.6167 71.4069 12.4444 71.3613 13.326V23.6768H66.4761V0H71.3613V8.33058C71.9591 7.62388 72.7129 7.06563 73.5631 6.69977C74.4134 6.33391 75.337 6.17043 76.2612 6.22222C76.6279 6.2212 76.994 6.25069 77.3558 6.31038C80.14 6.78053 82.241 8.77135 82.241 11.4527" fill="black"/>
	<path d="M27.1076 19.3719C26.5451 19.3557 25.9913 19.2288 25.4778 18.9985C24.9644 18.7682 24.5013 18.439 24.1152 18.0297C23.7291 17.6203 23.4274 17.1389 23.2274 16.6129C23.0274 16.0869 22.933 15.5266 22.9496 14.9641C22.9261 14.4039 23.0161 13.8447 23.2142 13.3201C23.4124 12.7956 23.7146 12.3165 24.1027 11.9117C24.4907 11.507 24.9567 11.1849 25.4725 10.9649C25.9882 10.7449 26.5432 10.6315 27.1039 10.6315C27.6647 10.6315 28.2196 10.7449 28.7354 10.9649C29.2511 11.1849 29.7171 11.507 30.1052 11.9117C30.4933 12.3165 30.7955 12.7956 30.9936 13.3201C31.1918 13.8447 31.2818 14.4039 31.2582 14.9641C31.2758 15.5263 31.1824 16.0864 30.9832 16.6123C30.784 17.1383 30.483 17.6198 30.0975 18.0292C29.7119 18.4387 29.2493 18.768 28.7363 18.9984C28.2232 19.2288 27.6698 19.3557 27.1076 19.3719ZM27.1076 6.14871C24.7415 6.12321 22.4617 7.03677 20.768 8.68919C19.0743 10.3416 18.1047 12.5981 18.0718 14.9641C18.0718 17.3606 19.0238 19.6589 20.7183 21.3534C22.4128 23.048 24.7111 24 27.1076 24C29.504 24 31.8023 23.048 33.4969 21.3534C35.1914 19.6589 36.1434 17.3606 36.1434 14.9641C36.1105 12.5981 35.1409 10.3416 33.4472 8.68919C31.7535 7.03677 29.4737 6.12321 27.1076 6.14871Z" fill="black"/>
	<path d="M97.7709 11.4821L100.643 8.60238C98.6693 6.99731 96.1855 6.15287 93.6423 6.22222C89.1464 6.22222 85.5615 8.02938 85.5615 11.0854C85.5615 14.1414 88.0739 15.9118 90.9903 16.551C93.9068 17.1901 96.0665 17.0505 96.0665 18.2112C96.0665 19.3719 94.972 19.798 93.1281 19.798C91.0271 19.8929 88.9743 19.1505 87.4201 17.7337L84.5918 20.7383C84.5918 20.7383 87.6111 23.6768 93.3338 23.6768C99.0564 23.6768 100.988 19.8347 100.988 18.3655C100.988 16.8962 100.254 14.1855 95.5597 13.0909C93.3558 12.5767 90.3512 12.7897 90.3512 11.2984C90.3512 9.80716 92.4743 9.93939 93.5027 9.93939C95.0695 9.92572 96.5873 10.4848 97.7709 11.5115" fill="black"/>
	<path d="M54.3625 0.17627V6.25157H51.6812V10.5344H54.3625V18.8503C54.3625 18.8503 54.5315 23.8237 59.6738 23.8237C61.2025 23.786 62.7174 23.5236 64.1697 23.045L63.3102 19.3719L61.2165 19.7833C61.2165 19.7833 59.4167 19.8273 59.4167 18.674V10.5932H63.5306V6.25157H59.4167V0.17627H54.3625Z" fill="black"/>
	<path d="M105.976 0.17627V6.25157H103.317V10.5344H105.976V18.8503C105.976 18.8503 106.145 23.8237 111.288 23.8237C112.816 23.786 114.331 23.5236 115.783 23.045L114.924 19.3719L112.823 19.7833C112.823 19.7833 111.03 19.8273 111.03 18.674V10.5932H115.137V6.25157H111.03V0.17627H105.976Z" fill="black"/>
	<path d="M128.558 18.2993C128.174 18.8409 127.676 19.291 127.098 19.6173C126.52 19.9437 125.877 20.1384 125.216 20.1873C123.159 20.1873 122.711 19.0119 122.711 18.2993C122.73 17.7647 122.947 17.2564 123.321 16.8734C123.694 16.4904 124.197 16.2602 124.731 16.2277C126.002 16.0934 127.28 16.0419 128.558 16.0734V18.2993ZM126.435 6.1414C121.036 6.1414 118.788 8.71991 118.788 8.71991L121.726 11.6584C122.268 11.0816 122.927 10.6286 123.66 10.3307C124.393 10.0327 125.182 9.8967 125.972 9.93204C128.874 9.8953 128.558 13.2231 128.558 13.2231H124.15C122.16 13.2231 118.112 13.9577 118.112 18.7475C118.112 22.5381 121.741 23.6694 124.055 23.6694C126.369 23.6694 128.617 21.2011 128.617 21.2011V23.7576H133.436V11.269C133.436 11.269 133.017 6.12671 126.435 6.12671" fill="black"/>
	<path d="M0 6.14893V23.8239H4.88522V13.0984C5.00388 12.2462 5.43975 11.4702 6.10572 10.9255C6.77169 10.3807 7.61871 10.1073 8.4775 10.1599C10.6006 10.1599 10.7916 12.6356 10.7916 14.1783V23.8239H15.7429V11.519C15.7429 11.519 15.1625 6.14893 10.0202 6.14893C6.00918 6.14893 4.87787 8.72744 4.87787 8.72744V6.14893H0Z" fill="black"/>
	<path d="M38.4727 6.14893V23.8239H43.402V14.3473C43.402 13.407 44.2982 10.777 46.9575 10.6007C49.345 10.4464 49.3524 10.6007 49.3524 10.6007V6.14893H47.3836C47.3836 6.14893 44.3423 6.69989 43.2256 9.0874V6.14893H38.4727Z" fill="black"/>
	<path d="M138.108 6.14893V23.8239H143.038V14.3473C143.038 13.407 143.934 10.777 146.593 10.6007C148.988 10.4464 148.988 10.6007 148.988 10.6007V6.14893H147.019C147.019 6.14893 143.978 6.69989 142.869 9.0874V6.14893H138.108Z" fill="black"/>
</svg>
