<svg width="68" height="68" viewBox="0 0 68 68" fill="none" xmlns="http://www.w3.org/2000/svg">
<path d="M60.8752 54.8243C57.8581 58.7152 54.0345 61.9047 49.6679 64.173C45.3014 66.4414 40.4956 67.7346 35.5819 67.9635C30.6681 68.1924 25.7632 67.3517 21.2052 65.4992C16.6472 63.6467 12.5445 60.8265 9.17969 57.2329L13.2412 53.4206C16.1054 56.4822 19.6094 58.8726 23.5028 60.421C27.3962 61.9695 31.583 62.6378 35.7642 62.3783C39.9453 62.1187 44.0177 60.9377 47.6903 58.9196C51.363 56.9014 54.5453 54.096 57.0101 50.7036L60.8752 54.8243Z" fill="#2B2B2A"/>
<path d="M68 33.9973C68.0047 37.7395 67.3912 41.4567 66.1843 44.9984C65.5678 46.8114 64.795 48.5674 63.8748 50.2463L59.8186 45.9289L46.5456 31.8067L46.5137 31.8386L37.8438 22.6135L9.81137 48.9489L5.68082 52.8304C4.66795 51.31 3.78016 49.7096 3.02623 48.045L7.36914 43.9669L34.1911 18.732L38.0721 15.0845L41.7249 18.966L61.7405 40.2662C62.5736 36.5067 62.6366 32.6169 61.9256 28.8323C61.2146 25.0478 59.7444 21.4469 57.6039 18.2477C55.4634 15.0485 52.6972 12.3174 49.4725 10.2196C46.2479 8.1218 42.6318 6.70092 38.843 6.0429C35.0543 5.38489 31.1717 5.50343 27.43 6.39134C23.6883 7.27926 20.1653 8.91809 17.0743 11.2087C13.9832 13.4993 11.3882 16.3941 9.44627 19.718C7.50436 23.0418 6.25589 26.7256 5.77639 30.5466L13.8676 22.9378L17.7486 19.2957L21.396 23.1718L25.5106 27.5318L21.6615 31.2272L17.5203 26.8193L5.8401 37.8097L1.06184 42.3186C0.534474 40.228 0.210868 38.0912 0.0955653 35.9381C0 35.2894 0 34.646 0 33.9973C0 24.9666 3.58213 16.3057 9.95837 9.92C16.3346 3.53429 24.9826 -0.0531616 34 -0.0531616C43.0174 -0.0531616 51.6654 3.53429 58.0416 9.92C64.4179 16.3057 68 24.9666 68 33.9973Z" fill="#2B2B2A"/>
</svg>
