<?xml version="1.0" encoding="UTF-8" standalone="no"?>
<svg width="202" height="105" viewBox="0 0 202 105" fill="none" xmlns="http://www.w3.org/2000/svg">
	<path fill-rule="evenodd" clip-rule="evenodd" d="M201.161 85.3403C194.337 93.54 185.155 99.4424 174.863 102.247C164.57 105.051 153.664 104.622 143.623 101.018C133.582 97.4132 124.893 90.8078 118.734 82.0972C115.247 77.1652 112.666 71.6935 111.074 65.9379C109.899 68.3237 108.445 70.4099 106.805 72.2257C108.549 76.9312 110.905 81.4171 113.835 85.5613C115.116 87.372 116.494 89.1012 117.962 90.7424C112.278 95.8537 105.507 99.6749 98.1118 101.89C87.7807 104.984 76.7431 104.789 66.5274 101.333C56.3117 97.8767 47.4233 91.3297 41.0931 82.5984C34.7628 73.8672 31.3039 63.3837 31.1953 52.5997C31.0866 41.8157 34.3336 31.2647 40.4866 22.4077C46.6397 13.5507 55.3943 6.82586 65.5383 3.16443C75.6823 -0.496996 86.7137 -0.913884 97.1051 1.9715C104.883 4.1311 112.014 8.06066 117.962 13.4092C116.371 15.1876 114.886 17.0691 113.517 19.0454C110.883 22.8465 108.729 26.9265 107.082 31.1931C108.703 33.003 110.131 35.0979 111.275 37.5089C112.832 32.171 115.245 27.0864 118.449 22.4623C124.524 13.6932 133.149 7.00491 143.155 3.30443C153.161 -0.39604 164.062 -0.92957 174.382 1.7762C184.701 4.48198 193.938 10.2961 200.841 18.4301L183.52 33.1285C179.633 28.548 174.431 25.2738 168.62 23.75C162.809 22.2263 156.67 22.5268 151.035 24.6107C145.4 26.6945 140.543 30.461 137.122 35.3993C133.701 40.3375 131.881 46.2085 131.91 52.216C131.938 58.2236 133.814 64.0769 137.283 68.9821C140.751 73.8874 145.644 77.6071 151.298 79.637C156.953 81.6668 163.094 81.9085 168.891 80.3292C174.687 78.7499 179.857 75.426 183.7 70.8084L201.161 85.3403ZM102.031 29.6561C103.439 30.8396 104.74 32.1591 105.913 33.601L106.267 33.3125C107.969 35.3839 109.411 37.836 110.446 40.7267C109.727 43.9417 109.312 47.2309 109.215 50.5514H101.171C100.969 43.4954 99.3458 37.8532 97.0667 33.455C98.7632 32.4351 100.449 31.1835 102.031 29.6561ZM95.9803 25.7321C97.5447 26.4915 99.0371 27.3882 100.44 28.4106C99.0488 29.724 97.5741 30.8121 96.0903 31.709C93.8643 28.0136 91.182 25.3299 88.6212 23.5298C90.9529 23.9407 93.4787 24.649 95.9803 25.7321ZM65.9452 28.4107C67.3459 27.3898 68.838 26.4928 70.4049 25.7321C72.9065 24.649 75.4324 23.9407 77.7641 23.5298C75.2032 25.3299 72.521 28.0136 70.2949 31.709C68.8111 30.8121 67.3365 29.724 65.9452 28.4107ZM54.802 44.9004C55.6595 41.5076 57.1233 38.2759 59.1431 35.3685C60.6289 33.2298 62.384 31.3119 64.3546 29.6561C65.9364 31.1835 67.622 32.4351 69.3185 33.455C67.0395 37.8532 65.4161 43.4954 65.2139 50.5514H54.2052C54.2563 48.531 54.4626 46.6502 54.802 44.9004ZM110.293 62.7159C109.597 59.388 109.226 55.9836 109.195 52.5498H101.19C101.117 59.7742 99.461 65.5577 97.1033 70.0772C98.7994 71.0712 100.541 72.2887 102.272 73.772C105.609 71.0659 108.505 67.4613 110.293 62.7159ZM2.19263 3.07581C1.08806 3.07581 0.192627 3.97124 0.192627 5.07581V99.0758C0.192627 100.18 1.08806 101.076 2.19263 101.076H20.1926C21.2972 101.076 22.1926 100.18 22.1926 99.0758V5.07581C22.1926 3.97124 21.2972 3.07581 20.1926 3.07581H2.19263ZM82.1926 68.0239V80.5261C79.2098 79.099 75.1589 76.024 72.0186 70.8604C76.3874 68.6525 80.194 68.024 82.1926 68.0239ZM82.1926 52.5498V66.0257C79.8425 66.0268 75.6998 66.7451 71.0373 69.1171C68.8322 64.8752 67.2678 59.416 67.1953 52.5498H82.1926ZM82.1926 37.5523V50.5514H67.2148C67.4144 43.8485 68.9462 38.5371 71.067 34.4257C75.4581 36.6711 79.7074 37.4582 82.1926 37.5523ZM82.1926 23.3288V35.5526C79.9603 35.4565 76.0765 34.7287 72.0441 32.6798C75.1646 27.53 79.1835 24.5771 82.1926 23.3288ZM94.3666 70.8604C91.2264 76.024 87.1754 79.099 84.1926 80.5261V68.0239C86.1913 68.024 89.9979 68.6525 94.3666 70.8604ZM95.348 69.1171C90.6855 66.7451 86.5427 66.0268 84.1926 66.0257V52.5498H99.19C99.1175 59.416 97.553 64.8752 95.348 69.1171ZM99.1705 50.5514H84.1926V37.5523C86.6778 37.4582 90.9271 36.6711 95.3182 34.4257C97.4391 38.5371 98.9709 43.8485 99.1705 50.5514ZM94.3411 32.6798C90.3087 34.7287 86.4249 35.4565 84.1926 35.5526V23.3288C87.2017 24.5771 91.2206 27.53 94.3411 32.6798ZM69.282 70.0772C66.9242 65.5577 65.2682 59.7742 65.1951 52.5498H54.2055C54.468 62.6612 58.7131 69.393 64.1136 73.772C65.844 72.2887 67.5859 71.0712 69.282 70.0772ZM65.7505 75.0055C67.2676 73.7375 68.786 72.6868 70.2615 71.8198C72.5549 75.6147 75.3287 78.3898 77.9257 80.2769C74.0625 79.4108 69.6826 77.7587 65.7505 75.0055ZM100.635 75.0055C99.1176 73.7375 97.5993 72.6868 96.1238 71.8198C93.8303 75.6147 91.0566 78.3898 88.4596 80.2769C92.3227 79.4108 96.7027 77.7587 100.635 75.0055Z" fill="white"/>
</svg>
