<svg width="14" height="14" viewBox="0 0 14 14" fill="none" xmlns="http://www.w3.org/2000/svg">
	<path d="M7.03105 4L6.9574 7.95622H6.23827L6.16462 4H7.03105ZM6 9.42955C6 9.26265 6.05632 9.12449 6.16895 9.01505C6.28159 8.90834 6.42599 8.85499 6.60217 8.85499C6.77834 8.85499 6.9213 8.90834 7.03105 9.01505C7.14368 9.12175 7.2 9.25992 7.2 9.42955C7.2 9.59644 7.14368 9.73324 7.03105 9.83994C6.9213 9.94665 6.77834 10 6.60217 10C6.42599 10 6.28159 9.94665 6.16895 9.83994C6.05632 9.73324 6 9.59644 6 9.42955Z" fill="#F20C0C"/>
	<rect x="0.5" y="0.5" width="12.2" height="13" rx="6.1" stroke="#F20C0C"/>
</svg>