<?xml version="1.0" encoding="UTF-8" standalone="no"?>
<svg width="100" height="16" viewBox="0 0 100 16" fill="none" xmlns="http://www.w3.org/2000/svg">
	<path d="M54.8518 7.62534V15.7845H51.5705V8.32568C51.5705 7.98001 51.4555 7.64417 51.2435 7.37107C51.0316 7.09797 50.7349 6.90314 50.4 6.81726H50.3706C50.2538 6.78756 50.1337 6.77275 50.0131 6.77319H49.9005C49.3126 6.74653 48.738 6.95353 48.3022 7.34899C47.8663 7.74445 47.6046 8.29627 47.5742 8.88399V15.7845H44.3174V0H47.5742V5.55372C47.9727 5.08259 48.4752 4.71042 49.0421 4.46651C49.6089 4.2226 50.2247 4.11362 50.8408 4.14815C51.0852 4.14747 51.3293 4.16713 51.5705 4.20692C53.4267 4.52036 54.8273 5.84757 54.8273 7.63514" fill="white"/>
	<path d="M18.0717 12.9147C17.6967 12.9039 17.3275 12.8193 16.9852 12.6658C16.6429 12.5122 16.3342 12.2927 16.0768 12.0199C15.8194 11.747 15.6182 11.426 15.4849 11.0753C15.3516 10.7247 15.2887 10.3512 15.2998 9.97618C15.2841 9.60268 15.3441 9.22986 15.4762 8.88016C15.6083 8.53045 15.8097 8.21107 16.0684 7.94124C16.3272 7.67141 16.6378 7.4567 16.9816 7.31002C17.3255 7.16334 17.6955 7.08772 18.0693 7.08772C18.4431 7.08772 18.8131 7.16334 19.1569 7.31002C19.5008 7.4567 19.8114 7.67141 20.0701 7.94124C20.3288 8.21107 20.5303 8.53045 20.6624 8.88016C20.7945 9.22986 20.8545 9.60268 20.8388 9.97618C20.8505 10.3509 20.7882 10.7243 20.6555 11.075C20.5227 11.4256 20.322 11.7466 20.065 12.0196C19.8079 12.2925 19.4996 12.5121 19.1575 12.6657C18.8155 12.8193 18.4465 12.9039 18.0717 12.9147ZM18.0717 4.09922C16.4943 4.08222 14.9745 4.69126 13.8453 5.79288C12.7162 6.89449 12.0698 8.39882 12.0479 9.97618C12.0479 11.5738 12.6825 13.106 13.8122 14.2357C14.9419 15.3654 16.4741 16.0001 18.0717 16.0001C19.6694 16.0001 21.2016 15.3654 22.3312 14.2357C23.4609 13.106 24.0956 11.5738 24.0956 9.97618C24.0737 8.39882 23.4273 6.89449 22.2981 5.79288C21.169 4.69126 19.6491 4.08222 18.0717 4.09922Z" fill="white"/>
	<path d="M65.1802 7.65473L67.0951 5.73492C65.7792 4.66488 64.1233 4.10191 62.4279 4.14814C59.4306 4.14814 57.0407 5.35292 57.0407 7.39026C57.0407 9.42761 58.7156 10.6079 60.6599 11.034C62.6042 11.4601 64.044 11.367 64.044 12.1408C64.044 12.9146 63.3143 13.1987 62.085 13.1987C60.6844 13.2619 59.3159 12.767 58.2797 11.8225L56.3942 13.8255C56.3942 13.8255 58.4071 15.7845 62.2222 15.7845C66.0373 15.7845 67.3253 13.2231 67.3253 12.2436C67.3253 11.2642 66.8356 9.45699 63.7061 8.72727C62.2369 8.38445 60.2338 8.52647 60.2338 7.53229C60.2338 6.53811 61.6492 6.62626 62.3348 6.62626C63.3793 6.61715 64.3912 6.98985 65.1802 7.67432" fill="white"/>
	<path d="M36.2413 0.117432V4.16763H34.4538V7.02285H36.2413V12.5668C36.2413 12.5668 36.354 15.8824 39.7822 15.8824C40.8013 15.8573 41.8112 15.6823 42.7794 15.3632L42.2064 12.9145L40.8107 13.1888C40.8107 13.1888 39.6108 13.2181 39.6108 12.4492V7.06203H42.3534V4.16763H39.6108V0.117432H36.2413Z" fill="white"/>
	<path d="M70.6508 0.117432V4.16763H68.8779V7.02285H70.6508V12.5668C70.6508 12.5668 70.7635 15.8824 74.1917 15.8824C75.2108 15.8573 76.2207 15.6823 77.1889 15.3632L76.6159 12.9145L75.2152 13.1888C75.2152 13.1888 74.0203 13.2181 74.0203 12.4492V7.06203H76.7579V4.16763H74.0203V0.117432H70.6508Z" fill="white"/>
	<path d="M85.7054 12.1996C85.4497 12.5606 85.1173 12.8606 84.7321 13.0782C84.3468 13.2958 83.9183 13.4256 83.4771 13.4582C82.1058 13.4582 81.807 12.6746 81.807 12.1996C81.8197 11.8432 81.9647 11.5043 82.2137 11.2489C82.4627 10.9936 82.7978 10.8402 83.1538 10.8185C84.0012 10.7289 84.8535 10.6946 85.7054 10.7156V12.1996ZM84.29 4.09427C80.6904 4.09427 79.1918 5.81328 79.1918 5.81328L81.1508 7.77226C81.5117 7.38771 81.9516 7.08576 82.4402 6.8871C82.9288 6.68845 83.4546 6.5978 83.9815 6.62136C85.916 6.59687 85.7054 8.81542 85.7054 8.81542H82.7669C81.4397 8.81542 78.7412 9.30516 78.7412 12.4983C78.7412 15.0254 81.1606 15.7796 82.7033 15.7796C84.246 15.7796 85.7446 14.1341 85.7446 14.1341V15.8384H88.9573V7.51269C88.9573 7.51269 88.6782 4.08447 84.29 4.08447" fill="white"/>
	<path d="M0 4.09937V15.8827H3.25681V8.73236C3.33592 8.16424 3.6265 7.6469 4.07048 7.28372C4.51446 6.92055 5.07914 6.73829 5.65167 6.77338C7.06703 6.77338 7.19437 8.42382 7.19437 9.45229V15.8827H10.4953V7.67941C10.4953 7.67941 10.1084 4.09937 6.68014 4.09937C4.00612 4.09937 3.25191 5.81837 3.25191 5.81837V4.09937H0Z" fill="white"/>
	<path d="M25.6481 4.09937V15.8827H28.9343V9.56493C28.9343 8.93806 29.5318 7.18476 31.3047 7.06723C32.8963 6.96438 32.9012 7.06723 32.9012 7.06723V4.09937H31.5887C31.5887 4.09937 29.5612 4.46667 28.8168 6.05835V4.09937H25.6481Z" fill="white"/>
	<path d="M92.0723 4.09937V15.8827H95.3585V9.56493C95.3585 8.93806 95.956 7.18476 97.7288 7.06723C99.3254 6.96438 99.3254 7.06723 99.3254 7.06723V4.09937H98.0129C98.0129 4.09937 95.9853 4.46667 95.2458 6.05835V4.09937H92.0723Z" fill="white"/>
</svg>
