<?xml version="1.0" encoding="UTF-8" standalone="no"?>
<svg width="17" height="17" viewBox="0 0 17 17" fill="none" xmlns="http://www.w3.org/2000/svg">
	<path d="M14.3448 12.9124C13.6339 13.8279 12.7329 14.5784 11.7039 15.1121C10.675 15.6458 9.54252 15.9501 8.38462 16.004C7.22673 16.0578 6.07093 15.86 4.99686 15.4241C3.92279 14.9883 2.956 14.3247 2.16312 13.4791L3.12019 12.5821C3.79512 13.3025 4.6208 13.8649 5.53826 14.2293C6.45572 14.5936 7.44231 14.7509 8.42758 14.6898C9.41284 14.6287 10.3725 14.3508 11.2379 13.876C12.1033 13.4011 12.8532 12.741 13.4341 11.9428L14.3448 12.9124Z" fill="#515154"/>
	<path d="M16.0238 8.01189C16.0249 8.8924 15.8803 9.76703 15.5959 10.6004C15.4506 11.027 15.2685 11.4401 15.0517 11.8352L14.0959 10.8193L10.9682 7.49644L10.9607 7.50395L8.91766 5.33333L2.31199 11.5299L1.33865 12.4432C1.09997 12.0854 0.89077 11.7089 0.713113 11.3172L1.73649 10.3577L8.05692 4.42005L8.97146 3.56181L9.8322 4.4751L14.5488 9.4869C14.7451 8.60231 14.7599 7.68708 14.5924 6.79659C14.4248 5.9061 14.0784 5.05885 13.574 4.30609C13.0696 3.55333 12.4178 2.91072 11.6579 2.41712C10.898 1.92352 10.0459 1.58919 9.15312 1.43437C8.26032 1.27954 7.3454 1.30743 6.4637 1.51635C5.582 1.72527 4.75184 2.11088 4.02344 2.64985C3.29504 3.18882 2.68355 3.86995 2.22595 4.65203C1.76835 5.43411 1.47416 6.30089 1.36117 7.19994L3.26781 5.40965L4.18234 4.55266L5.04183 5.4647L6.01142 6.49058L5.10439 7.36007L4.12855 6.32293L1.37618 8.90891L0.250215 9.96982C0.125945 9.47793 0.0496897 8.97514 0.0225194 8.46853C0 8.3159 0 8.16452 0 8.01189C0 5.887 0.844107 3.84915 2.34663 2.34663C3.84915 0.844107 5.887 0 8.01189 0C10.1368 0 12.1746 0.844107 13.6771 2.34663C15.1797 3.84915 16.0238 5.887 16.0238 8.01189Z" fill="#515154"/>
</svg>
